# xmcd CD database file
#
# Track frame offsets:
#	150
#	20195
#	40392
#	59105
#	80290
#	99542
#	117465
#	138795
#	156625
#	177712
#
# Disc length: 2601 seconds
#
# Revision: 2
# Processed by: cddbd v1.4PL0 Copyright (c) Steve Scherf et al.
# Submitted via: CDex 1.50Beta3
#
DISCID=950a270a
DTITLE=Eddie Santiago - Serie Millennium 21 Disk2
DYEAR=1999
DGENRE=Salsa
TTITLE0=Jugue Y Perdi
TTITLE1=Insaciable
TTITLE2=Manana
TTITLE3=Mia
TTITLE4=Cada Vez
TTITLE5=Vete
TTITLE6=para Que Vuelves
TTITLE7=Hagamoslo
TTITLE8=Tu Me Haces Falta
TTITLE9=Odiandote Y Sin Entender
EXTD=YEAR: 1999
EXTT0=
EXTT1=
EXTT2=
EXTT3=
EXTT4=
EXTT5=
EXTT6=
EXTT7=
EXTT8=
EXTT9=
PLAYORDER=
